<mxfile host="www.draw.io" modified="2019-10-14T16:47:27.466Z" agent="Mozilla/5.0 (Macintosh; Intel Mac OS X 10_14_6) AppleWebKit/537.36 (KHTML, like Gecko) Chrome/76.0.3809.132 Safari/537.36" etag="6nOXN0jnv3y1MDYlJASp" version="12.1.1" type="github" pages="1">
  <diagram id="4Rm2ZMxlAbs7q3RVxfDR" name="Transformation Points">
    <mxGraphModel dx="1015" dy="595" grid="1" gridSize="10" guides="1" tooltips="1" connect="1" arrows="1" fold="1" page="1" pageScale="1" pageWidth="1169" pageHeight="827" math="0" shadow="0">
      <root>
        <mxCell id="0"/>
        <mxCell id="1" parent="0"/>
        <mxCell id="hOJ83YzeteSH-LeUtZpt-1" value="Symitar &#xa;Accounts" style="shape=component;align=left;spacingLeft=36;" vertex="1" parent="1">
          <mxGeometry x="165" y="520" width="120" height="60" as="geometry"/>
        </mxCell>
        <mxCell id="hOJ83YzeteSH-LeUtZpt-2" value="Symitar &#xa;Transactions" style="shape=component;align=left;spacingLeft=36;" vertex="1" parent="1">
          <mxGeometry x="554.5" y="520" width="120" height="60" as="geometry"/>
        </mxCell>
        <mxCell id="hOJ83YzeteSH-LeUtZpt-18" style="edgeStyle=orthogonalEdgeStyle;rounded=0;orthogonalLoop=1;jettySize=auto;html=1;exitX=0.5;exitY=1;exitDx=0;exitDy=0;entryX=0.5;entryY=0;entryDx=0;entryDy=0;" edge="1" parent="1" source="hOJ83YzeteSH-LeUtZpt-3" target="hOJ83YzeteSH-LeUtZpt-1">
          <mxGeometry relative="1" as="geometry"/>
        </mxCell>
        <mxCell id="hOJ83YzeteSH-LeUtZpt-3" value="Symitar&amp;nbsp;&lt;br&gt;Accounts API" style="html=1;" vertex="1" parent="1">
          <mxGeometry x="159.5" y="381.5" width="130" height="70" as="geometry"/>
        </mxCell>
        <mxCell id="hOJ83YzeteSH-LeUtZpt-4" value="" style="shape=component;jettyWidth=8;jettyHeight=4;" vertex="1" parent="hOJ83YzeteSH-LeUtZpt-3">
          <mxGeometry x="1" width="20" height="20" relative="1" as="geometry">
            <mxPoint x="-27" y="7" as="offset"/>
          </mxGeometry>
        </mxCell>
        <mxCell id="hOJ83YzeteSH-LeUtZpt-19" style="edgeStyle=orthogonalEdgeStyle;rounded=0;orthogonalLoop=1;jettySize=auto;html=1;exitX=0.5;exitY=1;exitDx=0;exitDy=0;entryX=0.5;entryY=0;entryDx=0;entryDy=0;" edge="1" parent="1" source="hOJ83YzeteSH-LeUtZpt-5" target="hOJ83YzeteSH-LeUtZpt-2">
          <mxGeometry relative="1" as="geometry"/>
        </mxCell>
        <mxCell id="hOJ83YzeteSH-LeUtZpt-5" value="Symitar&amp;nbsp;&lt;br&gt;Transactions API" style="html=1;" vertex="1" parent="1">
          <mxGeometry x="550" y="371.5" width="130" height="70" as="geometry"/>
        </mxCell>
        <mxCell id="hOJ83YzeteSH-LeUtZpt-6" value="" style="shape=component;jettyWidth=8;jettyHeight=4;" vertex="1" parent="hOJ83YzeteSH-LeUtZpt-5">
          <mxGeometry x="1" width="20" height="20" relative="1" as="geometry">
            <mxPoint x="-27" y="7" as="offset"/>
          </mxGeometry>
        </mxCell>
        <mxCell id="hOJ83YzeteSH-LeUtZpt-15" style="edgeStyle=orthogonalEdgeStyle;rounded=0;orthogonalLoop=1;jettySize=auto;html=1;exitX=0.5;exitY=1;exitDx=0;exitDy=0;entryX=0.5;entryY=0;entryDx=0;entryDy=0;" edge="1" parent="1" source="hOJ83YzeteSH-LeUtZpt-7" target="hOJ83YzeteSH-LeUtZpt-3">
          <mxGeometry relative="1" as="geometry"/>
        </mxCell>
        <mxCell id="hOJ83YzeteSH-LeUtZpt-7" value="Accounts&lt;br&gt;API" style="html=1;" vertex="1" parent="1">
          <mxGeometry x="159.5" y="221.5" width="130" height="70" as="geometry"/>
        </mxCell>
        <mxCell id="hOJ83YzeteSH-LeUtZpt-8" value="" style="shape=component;jettyWidth=8;jettyHeight=4;" vertex="1" parent="hOJ83YzeteSH-LeUtZpt-7">
          <mxGeometry x="1" width="20" height="20" relative="1" as="geometry">
            <mxPoint x="-27" y="7" as="offset"/>
          </mxGeometry>
        </mxCell>
        <mxCell id="hOJ83YzeteSH-LeUtZpt-17" style="edgeStyle=orthogonalEdgeStyle;rounded=0;orthogonalLoop=1;jettySize=auto;html=1;exitX=0.5;exitY=1;exitDx=0;exitDy=0;entryX=0.5;entryY=0;entryDx=0;entryDy=0;" edge="1" parent="1" source="hOJ83YzeteSH-LeUtZpt-9" target="hOJ83YzeteSH-LeUtZpt-5">
          <mxGeometry relative="1" as="geometry"/>
        </mxCell>
        <mxCell id="hOJ83YzeteSH-LeUtZpt-24" style="edgeStyle=none;rounded=0;orthogonalLoop=1;jettySize=auto;html=1;exitX=0.5;exitY=1;exitDx=0;exitDy=0;entryX=0.5;entryY=0;entryDx=0;entryDy=0;" edge="1" parent="1" source="hOJ83YzeteSH-LeUtZpt-9" target="hOJ83YzeteSH-LeUtZpt-3">
          <mxGeometry relative="1" as="geometry"/>
        </mxCell>
        <mxCell id="hOJ83YzeteSH-LeUtZpt-9" value="Transactions&lt;br&gt;API" style="html=1;" vertex="1" parent="1">
          <mxGeometry x="550" y="221.5" width="130" height="70" as="geometry"/>
        </mxCell>
        <mxCell id="hOJ83YzeteSH-LeUtZpt-10" value="" style="shape=component;jettyWidth=8;jettyHeight=4;" vertex="1" parent="hOJ83YzeteSH-LeUtZpt-9">
          <mxGeometry x="1" width="20" height="20" relative="1" as="geometry">
            <mxPoint x="-27" y="7" as="offset"/>
          </mxGeometry>
        </mxCell>
        <mxCell id="hOJ83YzeteSH-LeUtZpt-20" style="edgeStyle=orthogonalEdgeStyle;rounded=0;orthogonalLoop=1;jettySize=auto;html=1;exitX=0.5;exitY=1;exitDx=0;exitDy=0;entryX=0.5;entryY=0;entryDx=0;entryDy=0;" edge="1" parent="1" source="hOJ83YzeteSH-LeUtZpt-11" target="hOJ83YzeteSH-LeUtZpt-7">
          <mxGeometry relative="1" as="geometry"/>
        </mxCell>
        <mxCell id="hOJ83YzeteSH-LeUtZpt-25" style="edgeStyle=none;rounded=0;orthogonalLoop=1;jettySize=auto;html=1;exitX=0.5;exitY=1;exitDx=0;exitDy=0;entryX=0.5;entryY=0;entryDx=0;entryDy=0;" edge="1" parent="1" source="hOJ83YzeteSH-LeUtZpt-11" target="hOJ83YzeteSH-LeUtZpt-9">
          <mxGeometry relative="1" as="geometry"/>
        </mxCell>
        <mxCell id="hOJ83YzeteSH-LeUtZpt-11" value="Internet&lt;br&gt;Banking API" style="html=1;" vertex="1" parent="1">
          <mxGeometry x="159.5" y="69" width="130" height="70" as="geometry"/>
        </mxCell>
        <mxCell id="hOJ83YzeteSH-LeUtZpt-12" value="" style="shape=component;jettyWidth=8;jettyHeight=4;" vertex="1" parent="hOJ83YzeteSH-LeUtZpt-11">
          <mxGeometry x="1" width="20" height="20" relative="1" as="geometry">
            <mxPoint x="-27" y="7" as="offset"/>
          </mxGeometry>
        </mxCell>
        <mxCell id="hOJ83YzeteSH-LeUtZpt-26" style="edgeStyle=none;rounded=0;orthogonalLoop=1;jettySize=auto;html=1;exitX=0.5;exitY=1;exitDx=0;exitDy=0;entryX=0.5;entryY=0;entryDx=0;entryDy=0;" edge="1" parent="1" source="hOJ83YzeteSH-LeUtZpt-13" target="hOJ83YzeteSH-LeUtZpt-9">
          <mxGeometry relative="1" as="geometry"/>
        </mxCell>
        <mxCell id="hOJ83YzeteSH-LeUtZpt-27" style="edgeStyle=none;rounded=0;orthogonalLoop=1;jettySize=auto;html=1;exitX=0.5;exitY=1;exitDx=0;exitDy=0;entryX=0.5;entryY=0;entryDx=0;entryDy=0;" edge="1" parent="1" source="hOJ83YzeteSH-LeUtZpt-13" target="hOJ83YzeteSH-LeUtZpt-7">
          <mxGeometry relative="1" as="geometry"/>
        </mxCell>
        <mxCell id="hOJ83YzeteSH-LeUtZpt-13" value="DIIS Internet &lt;br&gt;Banking API" style="html=1;" vertex="1" parent="1">
          <mxGeometry x="551" y="71.5" width="130" height="70" as="geometry"/>
        </mxCell>
        <mxCell id="hOJ83YzeteSH-LeUtZpt-14" value="" style="shape=component;jettyWidth=8;jettyHeight=4;" vertex="1" parent="hOJ83YzeteSH-LeUtZpt-13">
          <mxGeometry x="1" width="20" height="20" relative="1" as="geometry">
            <mxPoint x="-27" y="7" as="offset"/>
          </mxGeometry>
        </mxCell>
        <mxCell id="hOJ83YzeteSH-LeUtZpt-29" value="" style="rounded=0;whiteSpace=wrap;html=1;dashed=1;fillColor=none;" vertex="1" parent="1">
          <mxGeometry x="80" y="40" width="680" height="133" as="geometry"/>
        </mxCell>
        <mxCell id="hOJ83YzeteSH-LeUtZpt-30" value="" style="rounded=0;whiteSpace=wrap;html=1;dashed=1;fillColor=none;" vertex="1" parent="1">
          <mxGeometry x="80" y="190" width="680" height="133" as="geometry"/>
        </mxCell>
        <mxCell id="hOJ83YzeteSH-LeUtZpt-31" value="" style="rounded=0;whiteSpace=wrap;html=1;dashed=1;fillColor=none;" vertex="1" parent="1">
          <mxGeometry x="80" y="340" width="680" height="133" as="geometry"/>
        </mxCell>
        <mxCell id="hOJ83YzeteSH-LeUtZpt-32" value="Experience APIs" style="text;html=1;resizable=0;autosize=1;align=left;verticalAlign=middle;points=[];fillColor=none;strokeColor=none;rounded=0;dashed=1;" vertex="1" parent="1">
          <mxGeometry x="80" y="40" width="100" height="20" as="geometry"/>
        </mxCell>
        <mxCell id="hOJ83YzeteSH-LeUtZpt-33" value="Process APIs" style="text;html=1;resizable=0;autosize=1;align=left;verticalAlign=middle;points=[];fillColor=none;strokeColor=none;rounded=0;dashed=1;" vertex="1" parent="1">
          <mxGeometry x="85" y="190" width="90" height="20" as="geometry"/>
        </mxCell>
        <mxCell id="hOJ83YzeteSH-LeUtZpt-34" value="System APIs" style="text;html=1;resizable=0;autosize=1;align=left;verticalAlign=middle;points=[];fillColor=none;strokeColor=none;rounded=0;dashed=1;" vertex="1" parent="1">
          <mxGeometry x="80" y="340" width="80" height="20" as="geometry"/>
        </mxCell>
      </root>
    </mxGraphModel>
  </diagram>
</mxfile>
